<?xml version="1.0" standalone="no"?>
<!DOCTYPE svg PUBLIC "-//W3C//DTD SVG 20010904//EN"
 "http://www.w3.org/TR/2001/REC-SVG-20010904/DTD/svg10.dtd">
<svg version="1.0" xmlns="http://www.w3.org/2000/svg"
 width="260.000000pt" height="260.000000pt" viewBox="0 0 260.000000 260.000000"
 preserveAspectRatio="xMidYMid meet">
<metadata>
Created by potrace 1.14, written by Peter Selinger 2001-2017
</metadata>
<g transform="translate(0.000000,260.000000) scale(0.100000,-0.100000)"
fill="#000000" stroke="none">
<path d="M1155 2523 c-129 -18 -327 -98 -435 -176 -72 -52 -179 -161 -228
-234 -163 -241 -207 -499 -138 -808 15 -63 70 -181 96 -205 120 -110 306 -194
475 -215 28 -4 61 -8 75 -10 23 -3 23 -3 6 8 -51 32 -126 99 -168 152 -185
229 -241 590 -127 817 82 162 249 295 424 337 69 17 190 22 250 10 28 -6 61
-12 75 -15 37 -7 165 -69 208 -101 91 -68 177 -178 213 -273 l17 -45 166 -3
c135 -2 166 0 166 11 0 22 -39 137 -66 197 -65 140 -202 302 -328 389 -70 49
-220 117 -311 141 -77 21 -288 34 -370 23z"/>
<path d="M1240 1521 c0 -5 14 -14 30 -20 118 -41 59 -408 -91 -562 -105 -108
-248 -139 -422 -90 -37 10 -67 17 -67 16 0 -7 73 -45 133 -69 60 -24 107 -34
192 -40 95 -8 263 55 356 131 60 49 132 144 162 213 36 81 67 215 72 311 6
129 22 119 -186 119 -100 0 -179 -4 -179 -9z"/>
<path d="M1650 1524 c0 -3 10 -18 21 -34 19 -25 21 -37 16 -117 -21 -322 -242
-591 -547 -666 -36 -9 -86 -17 -113 -18 -31 -2 -44 -6 -37 -13 18 -18 277 -13
360 8 152 38 270 105 379 216 103 104 174 240 206 396 17 81 27 223 16 225
-23 4 -301 7 -301 3z"/>
<path d="M2014 1519 c-2 -4 0 -10 6 -14 25 -16 2 -203 -42 -330 -63 -187 -209
-363 -393 -476 -43 -27 -76 -49 -73 -49 47 0 205 49 283 88 265 131 472 442
478 720 l2 66 -128 1 c-71 1 -130 -2 -133 -6z"/>
<path d="M82 543 c-105 -51 -106 -208 -2 -263 73 -39 169 -11 209 60 72 129
-72 270 -207 203z m133 -68 c59 -58 13 -162 -68 -152 -109 14 -101 177 8 177
25 0 44 -8 60 -25z"/>
<path d="M369 551 c0 -3 -2 -68 -3 -143 -2 -145 0 -150 47 -140 13 3 17 13 17
43 0 21 3 39 8 40 4 0 26 2 49 4 57 5 82 20 98 58 21 49 4 106 -38 129 -23 12
-176 20 -178 9z m145 -67 c36 -35 12 -74 -46 -74 l-38 0 0 45 c0 45 0 45 34
45 19 0 42 -7 50 -16z"/>
<path d="M643 414 c0 -133 1 -143 19 -148 37 -9 46 3 45 55 0 27 2 51 5 55 4
3 24 6 45 6 73 0 69 3 68 -57 -1 -30 2 -55 6 -56 57 -7 54 -16 57 142 l3 146
-33 -1 -33 -1 0 -57 1 -56 -58 -1 c-38 0 -58 4 -59 12 0 7 -2 32 -2 57 -2 42
-3 45 -33 46 l-31 1 0 -143z"/>
<path d="M960 413 c0 -107 3 -143 13 -144 6 0 20 -2 30 -4 9 -2 18 0 18 3 4
25 4 282 -1 283 -3 1 -17 2 -32 3 l-28 3 0 -144z"/>
<path d="M1099 532 c-1 -40 -1 -213 0 -243 1 -22 5 -26 29 -24 24 1 27 5 32
45 4 37 9 46 27 48 16 2 29 -8 53 -42 17 -25 34 -47 38 -47 31 -6 53 -5 58 2
2 5 -9 27 -26 51 -30 42 -31 43 -12 58 40 33 52 78 31 123 -17 38 -48 50 -141
53 l-88 3 -1 -27z m168 -59 c13 -19 12 -24 -4 -40 -12 -12 -33 -18 -58 -18
l-40 0 -1 43 -2 43 45 -3 c34 -2 49 -9 60 -25z"/>
<path d="M1458 538 c-92 -53 -98 -189 -11 -248 45 -31 129 -34 181 -6 33 17
33 17 30 83 l-3 67 -47 -1 c-74 -2 -74 -2 -75 -24 -2 -21 31 -40 55 -32 7 3
12 -4 12 -20 0 -47 -76 -52 -121 -8 -31 31 -35 53 -19 97 20 51 69 68 124 42
22 -9 29 -8 46 7 27 25 26 30 -14 49 -48 22 -113 20 -158 -6z"/>
<path d="M1792 543 c-71 -35 -102 -133 -64 -203 21 -40 90 -80 136 -80 45 0
109 35 131 72 27 46 26 125 -3 165 -42 59 -132 80 -200 46z m133 -69 c74 -80
-31 -202 -114 -134 -45 38 -42 121 6 149 34 20 82 13 108 -15z"/>
<path d="M2077 551 c-3 -5 -1 -269 2 -281 2 -8 185 -5 198 3 6 4 10 15 8 25
-2 9 -4 19 -4 22 -1 3 -31 6 -68 5 l-68 0 -5 115 -5 115 -28 1 c-15 1 -29 -1
-30 -5z"/>
<path d="M2335 552 c-3 -3 -5 -69 -5 -146 l0 -141 68 1 c97 2 127 11 161 50
36 41 46 71 36 120 -15 84 -63 116 -176 119 -43 2 -81 0 -84 -3z m154 -67 c32
-16 41 -33 41 -78 -1 -54 -44 -89 -106 -84 l-28 2 -1 88 0 87 33 0 c18 0 46
-7 61 -15z"/>
<path d="M479 168 c-1 -2 -2 -24 -3 -50 -2 -50 7 -64 17 -26 l6 22 24 -22 c26
-24 46 -30 28 -8 -9 11 -9 20 -2 35 17 31 3 51 -35 51 -19 0 -35 -1 -35 -2z
m58 -32 c-5 -16 -48 -21 -45 -4 2 7 7 16 12 20 13 9 38 -2 33 -16z"/>
<path d="M748 120 l-3 -50 38 0 c24 0 36 4 32 10 -4 6 -15 8 -25 5 -11 -3 -20
0 -24 10 -4 11 1 15 19 15 13 0 27 5 30 10 3 6 -5 10 -19 10 -27 0 -47 19 -22
21 29 3 34 4 42 12 4 4 -9 7 -28 7 l-36 0 -4 -50z"/>
<path d="M1010 120 c0 -27 5 -50 10 -50 6 0 10 9 10 20 0 15 7 20 25 20 14 0
25 5 25 10 0 6 -11 10 -25 10 -16 0 -25 6 -25 15 0 11 7 14 25 11 13 -3 27 0
30 5 4 5 -12 9 -34 9 l-41 0 0 -50z"/>
<path d="M1280 170 c-6 -14 -5 -100 1 -100 10 0 16 52 8 80 -4 14 -8 23 -9 20z"/>
<path d="M1489 155 c-1 -8 -1 -26 -1 -40 0 -39 1 -45 11 -45 5 0 8 13 6 30 -2
16 -2 30 1 30 3 0 17 -13 31 -30 13 -16 28 -30 31 -30 4 0 7 22 8 50 0 28 -3
50 -8 50 -9 0 -11 -13 -9 -45 1 -17 -3 -14 -27 13 -31 35 -42 39 -43 17z"/>
<path d="M1770 120 l0 -50 35 0 c19 0 35 4 35 9 0 5 -11 8 -25 6 -19 -2 -25 2
-23 14 2 9 11 15 20 13 9 -1 19 2 23 8 4 6 -7 10 -27 10 -31 1 -32 2 -14 15
10 8 22 12 27 10 4 -3 10 -1 14 5 4 6 -8 10 -29 10 l-36 0 0 -50z"/>
<path d="M2033 120 c-1 -47 1 -50 24 -50 40 0 63 18 63 48 0 36 -17 52 -55 52
-31 0 -32 -1 -32 -50z m67 0 c0 -19 -6 -29 -19 -33 -25 -6 -31 0 -31 33 0 33
6 39 31 33 13 -4 19 -14 19 -33z"/>
</g>
</svg>
